<svg version="1.1" id="Layer_1" xmlns="http://www.w3.org/2000/svg" xmlns:xlink="http://www.w3.org/1999/xlink" x="0px" y="0px"
      width="140px" height="140px" viewBox="0 0 122 101.269" enable-background="new 0 0 122 101.269" xml:space="preserve">
<path  class="colour-two" d="M63.276,60.911c4.382-2.248,7.582-5.412,8.611-10.264h33.325c1.045,0,1.903-0.857,1.903-1.902V9.036
  c0-1.416-1.128-1.904-2.406-1.904H48.372c-1.277,0-2.405,0.488-2.405,1.904v39.709c0,1.045,0.857,1.902,1.901,1.902
  c13.488,0,1.921,0,15.408,0V60.911z M55.494,35.421h21.048v3.916H55.494V35.421z M55.494,26.511h42.094v3.914H55.494V26.511z
   M55.494,17.599h42.094v3.918H55.494V17.599z"/>
<path  class="colour-one"  d="M45.036,89.138C30.85,72.427,20.178,53.685,12.68,33.112C6.806,16.991,27.267,9.089,28.865,13.157
  l9.058,21.602c0.193,0.457-4.489,6.092-5.278,6.816c-1.528,1.408,13.033,26.658,15.04,26.027c1.021-0.32,8.222-1.547,8.532-1.158
  l14.18,18.646C73.143,88.538,56.104,102.179,45.036,89.138"/>
</svg>
