<svg version="1.1" id="Layer_1" xmlns="http://www.w3.org/2000/svg" xmlns:xlink="http://www.w3.org/1999/xlink" x="0px" y="0px"
     viewBox="0 0 122 101.269" enable-background="new 0 0 122 101.269" xml:space="preserve">
  <g>
    <path class="colour-one" d="M93.58,13.709H27.513c-3,0-5.436,2.435-5.436,5.438v47.839c0,3,2.435,5.438,5.436,5.438h25.784v4.779
				c0,1.002-0.811,1.813-1.811,1.813h-5.608c-1,0-1.811,0.811-1.811,1.811v1.812c0,1.001,0.81,1.812,1.811,1.812h29.336
				c1,0,1.812-0.812,1.812-1.812v-1.812c0-1-0.812-1.811-1.812-1.811h-5.607c-0.998,0-1.81-0.812-1.81-1.813v-4.779H93.58
				c3.005,0,5.437-2.438,5.437-5.438V19.147C99.017,16.145,96.585,13.709,93.58,13.709z M60.548,69.031
				c-2.229,0-4.034-1.803-4.034-4.034c0-2.226,1.805-4.036,4.034-4.036c2.224,0,4.031,1.811,4.031,4.036
				C64.579,67.229,62.772,69.031,60.548,69.031z M91.768,55.203c0,1.503-1.22,2.718-2.719,2.718H32.043
				c-1.495,0-2.717-1.215-2.717-2.718V23.679c0-1.5,1.222-2.718,2.717-2.718h57.005c1.499,0,2.719,1.217,2.719,2.718V55.203z"/>
  </g>
  <polygon class="colour-two" points="83.183,44.99 72.284,34.094 72.284,49.556 75.716,46.419 78.74,52.467 81.999,50.838 79.144,45.126 "/>
</svg>
