<svg version="1.1" id="Layer_1" xmlns="http://www.w3.org/2000/svg" xmlns:xlink="http://www.w3.org/1999/xlink" x="0px" y="0px"
viewBox="0 0 122 101.269" enable-background="new 0 0 122 101.269" xml:space="preserve">
<path class="colour-one" d="M80.109,63.044c4.038,0,7.311-3.27,7.311-7.309c0-4.041-3.272-7.31-7.311-7.31
c-4.039,0-7.314,3.269-7.314,7.31C72.795,59.774,76.07,63.044,80.109,63.044z M64.068,52.907c4.037,0,7.314-3.27,7.314-7.309
c0-4.037-3.277-7.311-7.314-7.311c-4.038,0-7.31,3.274-7.31,7.311C56.759,49.638,60.031,52.907,64.068,52.907z M86.032,67.179
c-9.262,2.76-17.97,4.697-20.824,4.9c-2.465,0.178-12.903-6.451-14.323-7.336c0.712-2.188,1.884-1.928,3.795-0.99
c2.426,1.184,7.354,4.029,8.959,4.861c3.151,1.637,8.521-3.139,2.751-7.021c-4.855-3.264-10.536-8.059-15.893-9.367
c-2.83-0.695-10.565,0.877-13.071,1.805c-5.47,2.027-12.362,3.238-12.362,3.238v21.238l14.171,0.643c0,0,19.545,4.689,24.235,4.33
c4.688-0.367,18.498-5.016,26.228-8.564C96.161,71.946,93.498,64.952,86.032,67.179z"/>
<g>

<path class="colour-two" d="M84.072,14.506c-7.878,0-14.265,6.39-14.265,14.268c0,7.877,6.387,14.267,14.265,14.267
s14.269-6.39,14.269-14.267C98.341,20.896,91.95,14.506,84.072,14.506z M90.618,35.893c-0.31,0.681-0.788,1.216-1.432,1.616
c-0.647,0.399-1.312,0.598-2.005,0.598c-1.133,0-2.51-0.563-4.132-1.689c-0.586,0.625-1.12,1.064-1.602,1.314
c-0.483,0.25-1.008,0.375-1.579,0.375c-0.852,0-1.54-0.251-2.054-0.757c-0.516-0.504-0.774-1.141-0.774-1.907
c0-0.798,0.259-1.456,0.774-1.971c0.514-0.517,1.178-0.775,1.984-0.775c0.49,0,1.216,0.159,2.171,0.48
c0.007-0.186,0.013-0.328,0.013-0.423c0-0.906-0.193-2.008-0.575-3.309h-3.405v-2.336h2.816c-0.271-0.907-0.411-1.782-0.411-2.619
c0-1.563,0.443-2.797,1.329-3.697c0.885-0.899,2.077-1.351,3.581-1.351c0.962,0,1.766,0.21,2.409,0.634
c0.647,0.423,1.149,1.021,1.509,1.797c0.236,0.507,0.405,1.201,0.504,2.076l-2.842,0.214c-0.053-0.917-0.233-1.549-0.538-1.891
c-0.304-0.347-0.712-0.517-1.219-0.517c-0.509,0-0.926,0.17-1.25,0.517c-0.327,0.342-0.49,0.809-0.49,1.396
c0,0.837,0.208,1.983,0.624,3.44h3.567v2.336H84.52c0.101,0.633,0.152,1.215,0.152,1.75c0,1.071-0.152,2.038-0.456,2.9
c1.507,0.696,2.495,1.042,2.955,1.042c0.33,0,0.613-0.138,0.852-0.416c0.238-0.278,0.371-0.715,0.394-1.312h2.688
C91.089,34.388,90.926,35.216,90.618,35.893z"/>
</g>
</svg>
