<svg version="1.1" id="Layer_1" xmlns="http://www.w3.org/2000/svg" xmlns:xlink="http://www.w3.org/1999/xlink" x="0px" y="0px"
viewBox="0 0 122 101.269" enable-background="new 0 0 122 101.269" xml:space="preserve">
<path class="colour-two" d="M103.955,50.119c-5.117-5.112-13.394-5.112-18.483,0c-5.107,5.099-5.107,13.372,0,18.483c5.09,5.098,13.366,5.098,18.483,0
C109.064,63.491,109.064,55.218,103.955,50.119z M103.098,55.369L93.029,65.504c-0.549,0.555-1.457,0.559-2.014,0.005l-4.348-4.323
c-0.561-0.555-0.562-1.458-0.011-2.015c0.557-0.56,1.463-0.563,2.019-0.01l3.34,3.315l9.053-9.119
c0.552-0.56,1.454-0.56,2.017-0.005C103.644,53.907,103.653,54.81,103.098,55.369z"/>
<g>
<path class="colour-one" d="M18.039,50.119c-5.1,5.099-5.1,13.372,0,18.483c5.109,5.098,13.391,5.098,18.482,0
c5.117-5.111,5.117-13.385,0-18.483C31.43,45.007,23.148,45.007,18.039,50.119z M32.154,64.224c-2.684,2.688-7.052,2.688-9.734,0
c-2.684-2.692-2.684-7.047,0-9.736c2.683-2.688,7.051-2.688,9.734,0C34.852,57.177,34.852,61.531,32.154,64.224z"/>
<path class="colour-one" d="M58.262,45.129v8.384c0,1.521,1.229,2.751,2.732,2.751c1.509,0,2.742-1.23,2.742-2.751v-8.384
c0-1.508-1.233-2.737-2.742-2.737C59.491,42.392,58.262,43.621,58.262,45.129z"/>
<path class="colour-one" d="M82.648,43.414l-5.944-5.926c-1.055-1.073-2.8-1.073-3.872,0c-1.064,1.057-1.064,2.811,0,3.87l5.947,5.938
c1.059,1.059,2.81,1.059,3.869,0C83.707,46.226,83.707,44.483,82.648,43.414z"/>
<path class="colour-one" d="M49.16,37.488c-1.071-1.073-2.811-1.073-3.869,0l-5.944,5.926c-1.059,1.069-1.059,2.812,0,3.882
c1.069,1.059,2.817,1.059,3.89,0l5.924-5.938C50.223,40.299,50.223,38.545,49.16,37.488z"/>
<path class="colour-one" d="M51.763,64.077c-5.116,5.11-5.116,13.385,0,18.483c5.101,5.11,13.369,5.11,18.479,0
c5.106-5.099,5.106-13.373,0-18.483C65.132,58.977,56.863,58.977,51.763,64.077z M65.862,78.191c-2.686,2.689-7.047,2.689-9.73,0
c-2.694-2.69-2.694-7.059,0-9.735c2.684-2.69,7.045-2.69,9.73,0C68.556,71.133,68.556,75.501,65.862,78.191z"/>
<path class="colour-one" d="M70.241,34.882c5.106-5.098,5.106-13.373,0-18.484c-5.109-5.11-13.378-5.11-18.479,0
c-5.116,5.111-5.116,13.386,0,18.484C56.863,39.994,65.132,39.994,70.241,34.882z M56.132,20.779c2.684-2.688,7.045-2.688,9.73,0
c2.693,2.69,2.693,7.047,0,9.737c-2.686,2.687-7.047,2.687-9.73,0C53.438,27.826,53.438,23.47,56.132,20.779z"/>
</g>
</svg>
